<svg width="301" height="56" viewBox="0 0 301 56" fill="none" xmlns="http://www.w3.org/2000/svg">
<path d="M114.08 24.56L94.28 43.28H114.08V53H78.44V43.28L98.24 24.56H78.44V14.84H114.08V24.56ZM134.971 16.28V53H122.371V26H116.971V16.28H134.971ZM122.371 1.88H134.971V11.96H122.371V1.88ZM164.154 25.28C161.13 25.28 158.01 26 154.794 27.44V53H142.194V14.84H153.354L154.074 19.52C158.202 15.92 162.522 14.12 167.034 14.12H170.274V25.28H164.154ZM207.745 52.28C198.769 53.24 190.849 53.72 183.985 53.72C180.721 53.72 178.105 52.736 176.137 50.768C174.169 48.8 173.185 46.184 173.185 42.92V26.36C173.185 22.76 174.193 19.952 176.209 17.936C178.273 15.872 181.105 14.84 184.705 14.84H207.745V24.56H188.665C186.745 24.56 185.785 25.52 185.785 27.44V41.48C185.785 42.2 186.025 42.8 186.505 43.28C186.985 43.76 187.585 44 188.305 44C192.625 44 199.105 43.64 207.745 42.92V52.28ZM252.371 42.2C252.371 45.8 251.339 48.632 249.275 50.696C247.259 52.712 244.451 53.72 240.851 53.72H224.291C220.691 53.72 217.859 52.712 215.795 50.696C213.779 48.632 212.771 45.8 212.771 42.2V25.64C212.771 22.04 213.779 19.232 215.795 17.216C217.859 15.152 220.691 14.12 224.291 14.12H240.851C244.451 14.12 247.259 15.152 249.275 17.216C251.339 19.232 252.371 22.04 252.371 25.64V42.2ZM239.771 26.72C239.771 24.8 238.811 23.84 236.891 23.84H228.251C226.331 23.84 225.371 24.8 225.371 26.72V41.12C225.371 43.04 226.331 44 228.251 44H236.891C238.811 44 239.771 43.04 239.771 41.12V26.72ZM280.082 24.56C277.538 24.56 274.658 25.04 271.442 26V53H258.842V14.84H270.002L270.722 18.44C272.978 16.952 275.282 15.872 277.634 15.2C280.034 14.48 282.05 14.12 283.682 14.12H286.922C290.186 14.12 292.802 15.104 294.77 17.072C296.738 19.04 297.722 21.656 297.722 24.92V53H285.122V27.08C285.122 26.36 284.882 25.76 284.402 25.28C283.922 24.8 283.322 24.56 282.602 24.56H280.082Z" fill="url(#paint0_linear_5_92)"/>
<path d="M34 0L63.4449 54.75H4.55514L34 0Z" fill="url(#paint1_diamond_5_92)"/>
<path d="M71 34.0385C68.1459 32.361 32.7431 52.125 37 34.0385C41.2569 15.9519 3 34.0385 3 34.0385" stroke="url(#paint2_linear_5_92)" stroke-width="4" stroke-linecap="round"/>
<defs>
<linearGradient id="paint0_linear_5_92" x1="77" y1="30" x2="301" y2="30" gradientUnits="userSpaceOnUse">
<stop stop-color="white"/>
<stop offset="1" stop-color="#E2E2E2" stop-opacity="0.75"/>
</linearGradient>
<radialGradient id="paint1_diamond_5_92" cx="0" cy="0" r="1" gradientUnits="userSpaceOnUse" gradientTransform="translate(34 36.5) rotate(90) scale(41 38.1918)">
<stop stop-color="#034AFF"/>
<stop offset="1" stop-color="#84A6FF"/>
</radialGradient>
<linearGradient id="paint2_linear_5_92" x1="3" y1="33.8585" x2="71" y2="33.8585" gradientUnits="userSpaceOnUse">
<stop stop-color="#DE97FF"/>
<stop offset="1" stop-color="#E851EB"/>
</linearGradient>
</defs>
</svg>
