<svg width="246" height="53" viewBox="0 0 246 53" fill="none" xmlns="http://www.w3.org/2000/svg">
<path d="M50.728 46.6L69.16 22.624H80.536L62.104 46.6H50.728ZM50.728 52V46.6L58.216 43.792H80.104V52H50.728ZM52.024 25.432V17.224H80.536V22.624L72.976 25.432H52.024ZM86.7151 52V17.224H96.2191V52H86.7151ZM91.4671 11.608C89.9311 11.608 88.6591 11.104 87.6511 10.096C86.6431 9.04 86.1391 7.744 86.1391 6.208C86.1391 4.72 86.6431 3.448 87.6511 2.392C88.6591 1.336 89.9311 0.807998 91.4671 0.807998C93.0511 0.807998 94.3231 1.336 95.2831 2.392C96.2911 3.448 96.7951 4.72 96.7951 6.208C96.7951 7.744 96.2911 9.04 95.2831 10.096C94.3231 11.104 93.0511 11.608 91.4671 11.608ZM104.574 52V17.224H114.006V52H104.574ZM114.006 32.776L110.334 30.328C110.766 26.056 112.014 22.696 114.078 20.248C116.142 17.752 119.118 16.504 123.006 16.504C124.686 16.504 126.198 16.792 127.542 17.368C128.886 17.896 130.11 18.784 131.214 20.032L125.31 26.8C124.782 26.224 124.134 25.792 123.366 25.504C122.646 25.216 121.806 25.072 120.846 25.072C118.83 25.072 117.174 25.72 115.878 27.016C114.63 28.264 114.006 30.184 114.006 32.776ZM149.959 52.72C146.407 52.72 143.215 51.928 140.383 50.344C137.551 48.76 135.319 46.6 133.687 43.864C132.055 41.128 131.239 38.056 131.239 34.648C131.239 31.192 132.055 28.096 133.687 25.36C135.319 22.624 137.551 20.464 140.383 18.88C143.263 17.248 146.455 16.432 149.959 16.432C152.695 16.432 155.215 16.936 157.519 17.944C159.823 18.952 161.815 20.392 163.495 22.264L157.447 28.384C156.535 27.376 155.431 26.608 154.135 26.08C152.887 25.552 151.495 25.288 149.959 25.288C148.231 25.288 146.671 25.696 145.279 26.512C143.935 27.28 142.855 28.36 142.039 29.752C141.271 31.096 140.887 32.704 140.887 34.576C140.887 36.4 141.271 38.032 142.039 39.472C142.855 40.864 143.935 41.968 145.279 42.784C146.671 43.552 148.231 43.936 149.959 43.936C151.543 43.936 152.959 43.672 154.207 43.144C155.503 42.568 156.607 41.752 157.519 40.696L163.639 46.816C161.863 48.736 159.823 50.2 157.519 51.208C155.215 52.216 152.695 52.72 149.959 52.72ZM184.551 52.72C181.047 52.72 177.879 51.928 175.047 50.344C172.263 48.712 170.031 46.528 168.351 43.792C166.719 41.008 165.903 37.912 165.903 34.504C165.903 31.096 166.719 28.048 168.351 25.36C169.983 22.624 172.215 20.464 175.047 18.88C177.879 17.248 181.023 16.432 184.479 16.432C188.031 16.432 191.199 17.248 193.983 18.88C196.815 20.464 199.047 22.624 200.679 25.36C202.311 28.048 203.127 31.096 203.127 34.504C203.127 37.912 202.311 41.008 200.679 43.792C199.047 46.528 196.815 48.712 193.983 50.344C191.199 51.928 188.055 52.72 184.551 52.72ZM184.479 43.936C186.255 43.936 187.815 43.552 189.159 42.784C190.551 41.968 191.607 40.864 192.327 39.472C193.095 38.032 193.479 36.4 193.479 34.576C193.479 32.752 193.095 31.144 192.327 29.752C191.559 28.36 190.503 27.28 189.159 26.512C187.815 25.696 186.255 25.288 184.479 25.288C182.751 25.288 181.215 25.696 179.871 26.512C178.527 27.28 177.471 28.36 176.703 29.752C175.935 31.144 175.551 32.752 175.551 34.576C175.551 36.4 175.935 38.032 176.703 39.472C177.471 40.864 178.527 41.968 179.871 42.784C181.215 43.552 182.751 43.936 184.479 43.936ZM232.599 52V32.056C232.599 29.992 231.951 28.312 230.655 27.016C229.359 25.72 227.679 25.072 225.615 25.072C224.271 25.072 223.071 25.36 222.015 25.936C220.959 26.512 220.119 27.328 219.495 28.384C218.919 29.44 218.631 30.664 218.631 32.056L214.959 30.184C214.959 27.448 215.535 25.072 216.687 23.056C217.887 20.992 219.519 19.384 221.583 18.232C223.695 17.08 226.071 16.504 228.711 16.504C231.255 16.504 233.535 17.152 235.551 18.448C237.567 19.696 239.151 21.352 240.303 23.416C241.455 25.432 242.031 27.616 242.031 29.968V52H232.599ZM209.199 52V17.224H218.631V52H209.199Z" fill="url(#paint0_linear_44_8)"/>
<path d="M0 26.5219L0 32.4919L10.6385 26.1658L20.5537 20.2714C21.0045 20.0038 21.2813 19.5095 21.2813 18.9743V13L10.6385 19.3304L0.727547 25.2248C0.276761 25.4924 0 25.9867 0 26.5219Z" fill="#E40DB5"/>
<path d="M21.7028 45.9488V51.9188L32.3413 45.5927L42.2565 39.6983C42.7073 39.4307 42.984 38.9364 42.984 38.4011V32.4269L32.3413 38.7573L22.4303 44.6517C21.9795 44.9193 21.7028 45.4136 21.7028 45.9488Z" fill="#E40DB5"/>
<path d="M21.2812 45.9488V51.9188L10.6427 45.5927L0.727538 39.6983C0.276752 39.4307 -9.20147e-06 38.9364 -9.20147e-06 38.4011V32.4269L10.6427 38.7573L20.5537 44.6517C21.0045 44.9193 21.2812 45.4136 21.2812 45.9488Z" fill="#E40DB5"/>
<path d="M42.984 26.5219V32.4919L32.3455 26.1658L22.4303 20.2714C21.9795 20.0038 21.7027 19.5095 21.7027 18.9743V13L32.3455 19.3304L42.2565 25.2248C42.7072 25.4924 42.984 25.9867 42.984 26.5219Z" fill="#E40DB5"/>
<defs>
<linearGradient id="paint0_linear_44_8" x1="49" y1="25" x2="246" y2="25" gradientUnits="userSpaceOnUse">
<stop stop-color="white"/>
<stop offset="1" stop-color="#E2E2E2" stop-opacity="0.75"/>
</linearGradient>
</defs>
</svg>
