<svg width="281" height="54" viewBox="0 0 281 54" fill="none" xmlns="http://www.w3.org/2000/svg">
<path d="M94.08 23.56L74.28 42.28H94.08V52H58.44V42.28L78.24 23.56H58.44V13.84H94.08V23.56ZM114.971 15.28V52H102.371V25H96.9713V15.28H114.971ZM102.371 0.879997H114.971V10.96H102.371V0.879997ZM144.154 24.28C141.13 24.28 138.01 25 134.794 26.44V52H122.194V13.84H133.354L134.074 18.52C138.202 14.92 142.522 13.12 147.034 13.12H150.274V24.28H144.154ZM187.745 51.28C178.769 52.24 170.849 52.72 163.985 52.72C160.721 52.72 158.105 51.736 156.137 49.768C154.169 47.8 153.185 45.184 153.185 41.92V25.36C153.185 21.76 154.193 18.952 156.209 16.936C158.273 14.872 161.105 13.84 164.705 13.84H187.745V23.56H168.665C166.745 23.56 165.785 24.52 165.785 26.44V40.48C165.785 41.2 166.025 41.8 166.505 42.28C166.985 42.76 167.585 43 168.305 43C172.625 43 179.105 42.64 187.745 41.92V51.28ZM232.371 41.2C232.371 44.8 231.339 47.632 229.275 49.696C227.259 51.712 224.451 52.72 220.851 52.72H204.291C200.691 52.72 197.859 51.712 195.795 49.696C193.779 47.632 192.771 44.8 192.771 41.2V24.64C192.771 21.04 193.779 18.232 195.795 16.216C197.859 14.152 200.691 13.12 204.291 13.12H220.851C224.451 13.12 227.259 14.152 229.275 16.216C231.339 18.232 232.371 21.04 232.371 24.64V41.2ZM219.771 25.72C219.771 23.8 218.811 22.84 216.891 22.84H208.251C206.331 22.84 205.371 23.8 205.371 25.72V40.12C205.371 42.04 206.331 43 208.251 43H216.891C218.811 43 219.771 42.04 219.771 40.12V25.72ZM260.082 23.56C257.538 23.56 254.658 24.04 251.442 25V52H238.842V13.84H250.002L250.722 17.44C252.978 15.952 255.282 14.872 257.634 14.2C260.034 13.48 262.05 13.12 263.682 13.12H266.922C270.186 13.12 272.802 14.104 274.77 16.072C276.738 18.04 277.722 20.656 277.722 23.92V52H265.122V26.08C265.122 25.36 264.882 24.76 264.402 24.28C263.922 23.8 263.322 23.56 262.602 23.56H260.082Z" fill="url(#paint0_linear_8_100)"/>
<path d="M0 26.9209V33.0669L11.2744 26.5542L21.7823 20.4859C22.26 20.2104 22.5533 19.7016 22.5533 19.1505V13L11.2744 19.5171L0.771035 25.5854C0.293304 25.861 0 26.3698 0 26.9209Z" fill="url(#paint1_linear_8_100)"/>
<path d="M23 46.9209V53.0669L34.2744 46.5542L44.7823 40.4859C45.26 40.2104 45.5533 39.7016 45.5533 39.1505V33L34.2744 39.5171L23.771 45.5854C23.2933 45.861 23 46.3698 23 46.9209Z" fill="url(#paint2_linear_8_100)"/>
<path d="M22.5533 46.9209V53.0669L11.2789 46.5542L0.771046 40.4859C0.293316 40.2104 1.08182e-05 39.7016 1.08182e-05 39.1505V33L11.2789 39.5171L21.7823 45.5854C22.26 45.861 22.5533 46.3698 22.5533 46.9209Z" fill="url(#paint3_linear_8_100)"/>
<path d="M45.5533 26.9209V33.0669L34.2789 26.5542L23.771 20.4859C23.2933 20.2104 23 19.7016 23 19.1505V13L34.2789 19.5171L44.7823 25.5854C45.26 25.861 45.5533 26.3698 45.5533 26.9209Z" fill="url(#paint4_linear_8_100)"/>
<defs>
<linearGradient id="paint0_linear_8_100" x1="57" y1="29" x2="281" y2="29" gradientUnits="userSpaceOnUse">
<stop stop-color="white"/>
<stop offset="1" stop-color="#E2E2E2" stop-opacity="0.75"/>
</linearGradient>
<linearGradient id="paint1_linear_8_100" x1="0" y1="23.0323" x2="22.5533" y2="23.0323" gradientUnits="userSpaceOnUse">
<stop stop-color="#E40DB5"/>
<stop offset="1" stop-color="#FF64DD"/>
</linearGradient>
<linearGradient id="paint2_linear_8_100" x1="23" y1="43.0323" x2="45.5533" y2="43.0323" gradientUnits="userSpaceOnUse">
<stop stop-color="#E40DB5"/>
<stop offset="1" stop-color="#FF64DD"/>
</linearGradient>
<linearGradient id="paint3_linear_8_100" x1="22.5533" y1="43.0323" x2="1.14441e-05" y2="43.0323" gradientUnits="userSpaceOnUse">
<stop stop-color="#E40DB5"/>
<stop offset="1" stop-color="#FF64DD"/>
</linearGradient>
<linearGradient id="paint4_linear_8_100" x1="45.5533" y1="23.0323" x2="23" y2="23.0323" gradientUnits="userSpaceOnUse">
<stop stop-color="#E40DB5"/>
<stop offset="1" stop-color="#FF64DD"/>
</linearGradient>
</defs>
</svg>
